<svg width="20" height="35" viewBox="0 0 20 35" fill="none" xmlns="http://www.w3.org/2000/svg">
<path d="M10.6118 35L0 21.7418V18.0738H6.18143C7.79888 18.0738 8.95921 17.6571 9.66245 16.8238C10.3797 15.9904 10.7595 14.4945 10.8017 12.3361H0V8.66803H10.8017C10.7595 7.11066 10.443 5.9153 9.85232 5.08197C9.27567 4.23497 8.25598 3.76366 6.79325 3.66803H0V0H20V3.66803H14.4304C14.9367 3.96858 15.3657 4.61066 15.7173 5.59426C16.083 6.56421 16.308 7.5888 16.3924 8.66803H20V12.3361H16.3924C16.2518 14.4809 15.8228 16.1885 15.1055 17.459C14.3882 18.7158 13.5091 19.6516 12.4684 20.2664C11.4276 20.8811 10.3235 21.2842 9.15612 21.4754C7.98875 21.653 6.87764 21.7418 5.82278 21.7418L16.4346 35H10.6118Z" fill="#181818"/>
</svg>
