<svg width="22" height="37" viewBox="0 0 22 37" fill="none" xmlns="http://www.w3.org/2000/svg">
<path d="M11.2215 36.3124L11.3716 36.5H11.6118H17.4346H18.4752L17.825 35.6876L7.84253 23.2157C8.61338 23.1769 9.40971 23.0947 10.2313 22.9697L10.2313 22.9698L10.237 22.9688C11.4669 22.7673 12.6296 22.3425 13.7226 21.6969C14.8518 21.03 15.7879 20.0243 16.5397 18.7069L16.5409 18.7048C17.253 17.4436 17.6828 15.812 17.8556 13.8361H21H21.5V13.3361V9.66803V9.16803H21H17.8463C17.7357 8.21268 17.5162 7.29692 17.1867 6.42195C17.0166 5.94691 16.8211 5.52381 16.5939 5.16803H21H21.5V4.66803V1V0.5H21H1H0.5V1V4.66803V5.16803H1H7.77666C9.14564 5.26047 9.98354 5.69435 10.439 6.36335L10.4389 6.3634L10.4444 6.37112C10.8951 7.00698 11.1864 7.92526 11.2766 9.16803H1H0.5V9.66803V13.3361V13.8361H1H11.2848C11.1962 15.6796 10.831 16.8615 10.2835 17.4976L10.2835 17.4976L10.2803 17.5013C9.71064 18.1764 8.7242 18.5738 7.18143 18.5738H1H0.5V19.0738V22.7418V22.9173L0.609641 23.0542L11.2215 36.3124Z" fill="#181818" stroke="#727272"/>
</svg>
