<svg width="421" height="29" viewBox="0 0 421 29" fill="none" xmlns="http://www.w3.org/2000/svg">
<path d="M3.32957 23.6003C4.83405 25.4444 6.80005 26.1474 9.27499 26.2941C11.2822 26.413 13.348 26.1654 15.5923 25.8965C16.4407 25.7949 17.3146 25.6902 18.2205 25.601L18.2228 25.6008C21.3927 25.2922 24.6033 24.9644 27.8217 24.6359C31.5388 24.2564 35.2662 23.8758 38.9531 23.5226M3.32957 23.6003L79.8726 22.1776C107.026 20.0214 134.206 18.1336 161.423 16.781M3.32957 23.6003L3.14219 23.3514C2.95659 23.1048 2.84933 22.7353 3.10044 22.0263C3.36323 21.2843 3.93551 20.4871 4.5616 19.9077L4.56307 19.9063C5.52126 19.0181 6.78781 18.4912 8.40452 18.1436C9.54595 17.8982 10.6636 17.7732 11.8783 17.6373C12.4793 17.57 13.1041 17.5001 13.7673 17.4117L13.7674 17.4117C19.6597 16.6254 25.5765 16.0242 31.5264 15.4198C33.2743 15.2422 35.0251 15.0643 36.779 14.8814C52.4223 13.2505 68.0823 11.7776 83.7591 10.4623L83.76 10.4622C139.077 5.79669 194.825 2.93723 250.366 2.86742C278.16 2.8406 305.845 3.14156 333.62 3.98197L333.62 3.98199C345.692 4.34328 357.736 5.02233 369.82 5.70364C371.603 5.8042 373.388 5.90482 375.174 6.00448C377.432 6.13049 379.687 6.24902 381.938 6.36736C393.575 6.97915 405.115 7.58583 416.537 9.19562L416.541 9.19614C417.286 9.29992 417.615 9.57718 417.759 9.76008C417.917 9.96068 418.001 10.2334 417.969 10.5512C417.908 11.144 417.428 11.8928 416.175 11.9308L3.32957 23.6003ZM38.9531 23.5226L39.1659 25.7622L38.9517 23.5227C38.9522 23.5227 38.9527 23.5226 38.9531 23.5226ZM38.9531 23.5226C52.5244 22.2136 66.1053 21.0177 79.6957 19.9349L79.6963 19.9349C106.864 17.7775 134.068 15.8879 161.313 14.534M161.313 14.534C161.313 14.534 161.313 14.534 161.312 14.534L161.423 16.781M161.313 14.534C215.401 11.818 269.715 10.5306 323.901 10.8927L323.902 10.8927C328.405 10.9244 332.914 10.9467 337.427 10.9689C348.174 11.022 358.942 11.0752 369.688 11.2554L369.689 11.2554C374.616 11.339 379.52 11.4829 384.408 11.6264C395.038 11.9385 405.596 12.2484 416.175 11.9308L161.423 16.781M161.313 14.534L161.423 16.781" fill="#DE1F54" stroke="white" stroke-width="4.5"/>
</svg>
