<svg width="42" height="32" viewBox="0 0 42 32" fill="none" xmlns="http://www.w3.org/2000/svg">
<path d="M9.21458 1.28729C9.40828 1.48078 9.56195 1.71054 9.66679 1.96346C9.77163 2.21637 9.8256 2.48747 9.8256 2.76125C9.8256 3.03503 9.77163 3.30613 9.66679 3.55904C9.56195 3.81196 9.40828 4.04172 9.21458 4.23521C6.08841 7.36191 4.33219 11.6023 4.33219 16.0238C4.33219 20.4452 6.08841 24.6856 9.21458 27.8123C9.41356 28.0045 9.57228 28.2344 9.68146 28.4885C9.79065 28.7427 9.84812 29.0161 9.85052 29.2927C9.85293 29.5693 9.80021 29.8437 9.69546 30.0997C9.59071 30.3557 9.43602 30.5883 9.24041 30.7839C9.0448 30.9796 8.81219 31.1343 8.55616 31.239C8.30012 31.3438 8.02579 31.3965 7.74916 31.3941C7.47254 31.3917 7.19917 31.3342 6.94499 31.225C6.69082 31.1158 6.46093 30.9571 6.26875 30.7581C-1.87083 22.6206 -1.87083 9.42479 6.26875 1.28729C6.65943 0.896727 7.18924 0.67732 7.74167 0.67732C8.29409 0.67732 8.8239 0.896727 9.21458 1.28729ZM35.7396 1.28729C43.8771 9.42688 43.8771 22.6206 35.7396 30.7581C35.3489 31.149 34.819 31.3688 34.2664 31.369C33.7137 31.3692 33.1836 31.1498 32.7927 30.7592C32.4018 30.3685 32.1821 29.8386 32.1819 29.2859C32.1817 28.7333 32.401 28.2032 32.7917 27.8123C35.9178 24.6856 37.6741 20.4452 37.6741 16.0238C37.6741 11.6023 35.9178 7.36191 32.7917 4.23521C32.4007 3.84429 32.1811 3.31409 32.1811 2.76125C32.1811 2.20841 32.4007 1.67821 32.7917 1.28729C33.1826 0.896374 33.7128 0.676758 34.2656 0.676758C34.8185 0.676758 35.3487 0.896374 35.7396 1.28729ZM15.3958 7.27479C15.7864 7.66547 16.0058 8.19528 16.0058 8.74771C16.0058 9.30013 15.7864 9.82994 15.3958 10.2206C14.6374 10.979 14.0358 11.8793 13.6253 12.8702C13.2148 13.8611 13.0036 14.9231 13.0036 15.9956C13.0036 17.0682 13.2148 18.1302 13.6253 19.1211C14.0358 20.1119 14.6374 21.0123 15.3958 21.7706C15.5893 21.9642 15.7427 22.194 15.8473 22.4468C15.9519 22.6997 16.0057 22.9706 16.0056 23.2443C16.0055 23.5179 15.9515 23.7889 15.8467 24.0416C15.7419 24.2944 15.5884 24.5241 15.3948 24.7175C15.2012 24.9109 14.9715 25.0643 14.7186 25.169C14.4658 25.2736 14.1948 25.3274 13.9211 25.3273C13.6475 25.3272 13.3766 25.2732 13.1238 25.1684C12.871 25.0636 12.6413 24.91 12.4479 24.7165C10.1351 22.4035 8.83572 19.2666 8.83572 15.9956C8.83572 12.7247 10.1351 9.58773 12.4479 7.27479C12.6414 7.08109 12.8712 6.92743 13.1241 6.82258C13.377 6.71774 13.6481 6.66378 13.9219 6.66378C14.1957 6.66378 14.4668 6.71774 14.7197 6.82258C14.9726 6.92743 15.2023 7.08109 15.3958 7.27479ZM29.8917 7.27479C32.2045 9.58773 33.5039 12.7247 33.5039 15.9956C33.5039 19.2666 32.2045 22.4035 29.8917 24.7165C29.4987 25.096 28.9725 25.3059 28.4262 25.3012C27.88 25.2964 27.3575 25.0773 26.9712 24.6911C26.5849 24.3048 26.3658 23.7823 26.3611 23.236C26.3563 22.6898 26.5663 22.1635 26.9458 21.7706C27.7043 21.0123 28.3059 20.1119 28.7164 19.1211C29.1268 18.1302 29.3381 17.0682 29.3381 15.9956C29.3381 14.9231 29.1268 13.8611 28.7164 12.8702C28.3059 11.8793 27.7043 10.979 26.9458 10.2206C26.5663 9.8277 26.3563 9.30145 26.3611 8.75521C26.3658 8.20896 26.5849 7.68644 26.9712 7.30017C27.3575 6.9139 27.88 6.6948 28.4262 6.69005C28.9725 6.68531 29.4987 6.8953 29.8917 7.27479ZM21.1708 13.0456C21.5812 13.0456 21.9876 13.1265 22.3667 13.2835C22.7459 13.4405 23.0904 13.6707 23.3805 13.9609C23.6707 14.2511 23.9009 14.5956 24.058 14.9747C24.215 15.3539 24.2958 15.7602 24.2958 16.1706C24.2958 16.581 24.215 16.9874 24.058 17.3665C23.9009 17.7457 23.6707 18.0902 23.3805 18.3803C23.0904 18.6705 22.7459 18.9007 22.3667 19.0577C21.9876 19.2148 21.5812 19.2956 21.1708 19.2956C20.342 19.2956 19.5472 18.9664 18.9611 18.3803C18.3751 17.7943 18.0458 16.9994 18.0458 16.1706C18.0458 15.3418 18.3751 14.547 18.9611 13.9609C19.5472 13.3749 20.342 13.0456 21.1708 13.0456Z" fill="#181818"/>
</svg>
