<svg width="44" height="44" viewBox="0 0 44 44" fill="none" xmlns="http://www.w3.org/2000/svg">
<path d="M42.2301 15.1458C44.8343 12.5417 43.6468 9.5 42.2301 8.02083L35.9801 1.77083C33.3551 -0.833339 30.3343 0.354161 28.8551 1.77083L25.3135 5.33333H19.9176C15.9593 5.33333 13.6676 7.41666 12.501 9.8125L3.25097 19.0625V27.3958L1.7718 28.8542C-0.832362 31.4792 0.355138 34.5 1.7718 35.9792L8.0218 42.2292C9.1468 43.3542 10.3551 43.7708 11.501 43.7708C12.9801 43.7708 14.3343 43.0417 15.1468 42.2292L20.7718 36.5833H28.251C31.7926 36.5833 33.5843 34.375 34.2301 32.2083C36.5843 31.5833 37.876 29.7917 38.3968 28.0417C41.626 27.2083 42.8343 24.1458 42.8343 22V15.75H41.6051L42.2301 15.1458ZM38.6676 22C38.6676 22.9375 38.2718 24.0833 36.5843 24.0833H34.501V26.1667C34.501 27.1042 34.1051 28.25 32.4176 28.25H30.3343V30.3333C30.3343 31.2708 29.9385 32.4167 28.251 32.4167H19.0635L12.2301 39.25C11.5843 39.8542 11.2093 39.5 10.9801 39.2708L4.75097 33.0625C4.1468 32.4167 4.50097 32.0417 4.73014 31.8125L7.41764 29.1042V20.7708L11.5843 16.6042V19.9167C11.5843 22.4375 13.251 26.1667 17.8343 26.1667C22.4176 26.1667 24.0843 22.4375 24.0843 19.9167H38.6676V22ZM39.2718 12.1875L35.7301 15.75H19.9176V19.9167C19.9176 20.8542 19.5218 22 17.8343 22C16.1468 22 15.751 20.8542 15.751 19.9167V13.6667C15.751 12.7083 16.1051 9.5 19.9176 9.5H27.0218L31.7718 4.74999C32.4176 4.14583 32.7926 4.49999 33.0218 4.72916L39.251 10.9375C39.8551 11.5833 39.501 11.9583 39.2718 12.1875Z" fill="#181818"/>
</svg>
