<svg width="421" height="30" viewBox="0 0 421 30" fill="none" xmlns="http://www.w3.org/2000/svg">
<path d="M3.07778 24.2397C4.58519 26.1071 6.55227 26.814 9.02503 26.9599C11.0336 27.0784 13.1007 26.8264 15.3483 26.5525C16.1985 26.4488 17.0745 26.3421 17.983 26.251L17.9853 26.2508C21.1604 25.9358 24.3766 25.6014 27.6006 25.2662C31.3239 24.879 35.0576 24.4908 38.7505 24.1302L3.07778 24.2397ZM3.07778 24.2397L2.89008 23.9877C2.69659 23.7279 2.5895 23.3371 2.84572 22.6079C3.11249 21.8486 3.69049 21.0373 4.31946 20.4493L4.32092 20.4479C5.28378 19.5461 6.55327 19.0126 8.17042 18.66C9.31325 18.4109 10.4316 18.2835 11.648 18.145C12.2502 18.0765 12.8764 18.0052 13.5415 17.915L13.5417 17.915C19.444 17.1143 25.3707 16.5011 31.3309 15.8843C33.082 15.7031 34.836 15.5216 36.5931 15.335C52.2637 13.6714 67.9508 12.1674 83.6546 10.8231L83.6556 10.823C139.067 6.05466 194.91 3.11334 250.543 2.99483C278.382 2.94374 306.113 3.22442 333.933 4.05083L333.934 4.05085C346.024 4.40601 358.088 5.08271 370.191 5.76167C371.978 5.86189 373.765 5.96216 375.554 6.06146C377.816 6.18703 380.074 6.30502 382.329 6.42282C393.985 7.03183 405.543 7.6357 416.982 9.25458L416.985 9.25512C417.726 9.35866 418.054 9.63641 418.201 9.82442C418.363 10.032 418.451 10.3182 418.417 10.6529C418.352 11.2846 417.851 12.0369 416.611 12.0759C406.015 12.4064 395.441 12.1019 384.793 11.7953C379.897 11.6543 374.985 11.5129 370.049 11.4326L370.048 11.4325C359.285 11.2596 348.499 11.215 337.733 11.1705C333.213 11.1519 328.696 11.1332 324.186 11.1051L324.185 11.1051C269.909 10.7853 215.503 12.1348 161.323 14.9296C134.031 16.3231 106.781 18.2585 79.5661 20.4647L79.5655 20.4648C65.9514 21.5721 52.3469 22.7939 38.7519 24.1301L3.07778 24.2397Z" fill="#DE1F54" stroke="white" stroke-width="4.5"/>
</svg>
