<svg width="341" height="24" viewBox="0 0 341 24" fill="none" xmlns="http://www.w3.org/2000/svg">
<path d="M2.83555 19.3106C3.95802 20.7058 5.41708 21.2458 7.33373 21.359C8.9178 21.4526 10.5346 21.2539 12.3384 21.0323C13.0343 20.9467 13.7579 20.8578 14.5183 20.7809L14.5206 20.7807C17.0842 20.5242 19.6891 20.251 22.3016 19.977C25.3214 19.6603 28.3512 19.3426 31.339 19.0483M2.83555 19.3106L64.5818 18.2949C86.6099 16.4924 108.659 14.911 130.738 13.7709M2.83555 19.3106L2.68859 19.1121C2.64009 19.0466 2.53133 18.882 2.71142 18.3667C2.90144 17.823 3.32651 17.216 3.79803 16.7725L3.79949 16.7712C4.50157 16.1096 5.44528 15.699 6.71482 15.4202C7.61906 15.2217 8.4899 15.1218 9.46074 15.0105C9.95244 14.9541 10.4698 14.8948 11.0301 14.8182L11.0302 14.8182C15.8027 14.1656 20.5931 13.6657 25.4186 13.162C26.8378 13.0139 28.26 12.8654 29.6857 12.7127C42.3734 11.3542 55.0746 10.1258 67.7891 9.02737L67.7901 9.02728C112.655 5.13104 157.866 2.72318 202.904 2.6144C225.445 2.56664 247.898 2.78916 270.421 3.45613L270.421 3.45615C280.206 3.74265 289.969 4.29093 299.771 4.84143C301.218 4.9227 302.666 5.00401 304.114 5.08454C305.949 5.18651 307.78 5.28226 309.607 5.37781C319.047 5.87147 328.383 6.35977 337.625 7.67316L337.629 7.6737C338.13 7.74394 338.288 7.91951 338.332 7.97514C338.391 8.05149 338.44 8.17716 338.421 8.35665C338.403 8.53931 338.317 8.724 338.173 8.86186C338.047 8.98189 337.812 9.12826 337.369 9.14246M2.83555 19.3106L337.369 9.14246M31.339 19.0483L31.5587 21.2874L31.3375 19.0485C31.338 19.0484 31.3385 19.0484 31.339 19.0483ZM31.339 19.0483C42.3512 17.9565 53.371 16.9579 64.3986 16.0525L64.3992 16.0525C86.4412 14.2488 108.514 12.6657 130.621 11.5241M130.621 11.5241L130.738 13.7709M130.621 11.5241C174.506 9.23478 218.575 8.1231 262.537 8.37168L262.538 8.37168C266.188 8.3936 269.845 8.4078 273.505 8.42201C282.224 8.45586 290.963 8.48979 299.682 8.6284L299.683 8.62841C303.693 8.69297 307.677 8.80731 311.645 8.9212C320.26 9.16847 328.801 9.41359 337.369 9.14246M130.621 11.5241C130.622 11.524 130.622 11.524 130.623 11.524L130.738 13.7709M130.738 13.7709L337.369 9.14246" fill="white" stroke="#111113" stroke-width="4.5"/>
</svg>
