<svg width="235" height="16" viewBox="0 0 235 16" fill="none" xmlns="http://www.w3.org/2000/svg">
<path d="M2.56521 12.3342C3.33985 13.2931 4.35441 13.6687 5.68254 13.7517C6.77459 13.8199 7.89194 13.689 9.13197 13.5438C9.60843 13.488 10.103 13.4301 10.6212 13.3805L10.6228 13.3804C12.3827 13.2139 14.17 13.0363 15.9622 12.8582C18.0332 12.6525 20.1109 12.446 22.1609 12.2552C22.1613 12.2552 22.1616 12.2552 22.1619 12.2552L2.56521 12.3342ZM2.56521 12.3342L2.46467 12.1989C2.42612 12.1471 2.35433 12.0322 2.47912 11.6844C2.61155 11.3152 2.90628 10.903 3.23395 10.6014L3.23493 10.6004C3.72484 10.1486 4.38195 9.87021 5.25969 9.68375C5.88323 9.55129 6.48542 9.48562 7.1535 9.41277C7.49036 9.37603 7.84396 9.33747 8.2255 9.2876L8.2256 9.28759C11.5016 8.85919 14.7896 8.53412 18.1007 8.20678C19.0742 8.11054 20.0497 8.0141 21.0275 7.91477C29.7332 7.03095 38.4478 6.23523 47.1712 5.52754L47.1718 5.52749C77.9535 3.01661 108.968 1.51434 139.858 1.56815M2.56521 12.3342L90.2708 7.44239C120.373 6.01682 150.597 5.38896 180.745 5.68164L180.746 5.68165C183.249 5.70682 185.757 5.72678 188.267 5.74676C194.247 5.79435 200.24 5.84204 206.219 5.96055L206.219 5.96055C208.967 6.01557 211.698 6.10423 214.419 6.19254C220.328 6.38435 226.187 6.57456 232.066 6.4152C232.385 6.40643 232.558 6.30218 232.651 6.21573C232.755 6.11816 232.814 5.99018 232.828 5.86647C232.841 5.74523 232.808 5.65657 232.763 5.59862C232.728 5.55292 232.607 5.42629 232.249 5.37515L232.247 5.37479C225.909 4.45905 219.504 4.10188 213.032 3.74098C211.779 3.67113 210.524 3.60114 209.266 3.52694C208.273 3.46833 207.28 3.40919 206.288 3.35008C199.568 2.94965 192.873 2.55079 186.162 2.32911L186.162 2.3291C170.716 1.8138 155.318 1.59961 139.858 1.56815M139.858 1.56815L139.865 0.0685065L139.858 1.56815Z" fill="#DE1F54" stroke="white" stroke-width="3"/>
</svg>
