<svg width="421" height="29" viewBox="0 0 421 29" fill="none" xmlns="http://www.w3.org/2000/svg">
<path d="M3.0895 23.8049C4.59691 25.6723 6.56398 26.3792 9.03675 26.5251C11.0453 26.6436 13.1124 26.3916 15.36 26.1177C16.2102 26.014 17.0862 25.9073 17.9947 25.8162L17.997 25.816C21.1721 25.501 24.3883 25.1666 27.6123 24.8314C31.3356 24.4442 35.0693 24.056 38.7622 23.6954L3.0895 23.8049ZM3.0895 23.8049L2.90179 23.5529C2.7083 23.2931 2.60122 22.9022 2.85744 22.173C3.12421 21.4138 3.70221 20.6025 4.33118 20.0144L4.33264 20.0131C5.2955 19.1113 6.56499 18.5777 8.18213 18.2252C9.32496 17.9761 10.4434 17.8487 11.6597 17.7102C12.2619 17.6417 12.8882 17.5703 13.5533 17.4802L13.5534 17.4802C19.4557 16.6795 25.3825 16.0662 31.3426 15.4495C33.0937 15.2683 34.8477 15.0868 36.6048 14.9001C52.2754 13.2365 67.9625 11.7326 83.6663 10.3883L83.6673 10.3882C139.079 5.61984 194.922 2.67853 250.554 2.56002C278.394 2.50893 306.125 2.7896 333.945 3.61601L333.946 3.61604C346.036 3.97119 358.099 4.64789 370.203 5.32685C371.99 5.42708 373.777 5.52735 375.566 5.62664C377.827 5.75221 380.086 5.8702 382.34 5.988C393.997 6.59702 405.555 7.20089 416.993 8.81977L416.997 8.8203C417.738 8.92385 418.066 9.20159 418.212 9.38961C418.374 9.59722 418.462 9.88339 418.428 10.2181C418.364 10.8497 417.863 11.6021 416.623 11.6411C406.026 11.9716 395.452 11.6671 384.805 11.3605C379.909 11.2195 374.997 11.0781 370.06 10.9977L370.06 10.9977C359.296 10.8247 348.51 10.7802 337.744 10.7357C333.224 10.7171 328.708 10.6984 324.198 10.6703L324.197 10.6703C269.921 10.3505 215.515 11.7 161.334 14.4948C134.042 15.8883 106.792 17.8237 79.5778 20.0299L79.5772 20.03C65.9632 21.1373 52.3587 22.3591 38.7636 23.6953L3.0895 23.8049Z" fill="#DE1F54" stroke="white" stroke-width="4.5"/>
</svg>
