<svg width="178" height="40" viewBox="0 0 178 40" fill="none" xmlns="http://www.w3.org/2000/svg">
<g clip-path="url(#clip0_1_2679)">
<path d="M55.5867 6.18276C55.2606 4.98765 54.6246 3.89812 53.7419 3.02269C52.8592 2.14725 51.7607 1.51645 50.5558 1.1931C46.1444 0 28.3917 0 28.3917 0C28.3917 0 10.6382 0.0362069 6.22753 1.22931C5.02266 1.55271 3.92422 2.18353 3.04161 3.05896C2.15899 3.9344 1.52299 5.0239 1.19694 6.21897C-0.137362 13.9931 -0.655023 25.8383 1.23345 33.301C1.55949 34.4961 2.19549 35.5856 3.07811 36.461C3.96073 37.3365 5.05916 37.9673 6.26403 38.2907C10.6751 39.4838 28.4282 39.4838 28.4282 39.4838C28.4282 39.4838 46.1812 39.4838 50.5923 38.2907C51.7972 37.9673 52.8956 37.3365 53.7782 36.461C54.6608 35.5856 55.2968 34.4961 55.6229 33.301C57.0298 25.5162 57.4637 13.6783 55.5864 6.1831L55.5867 6.18276Z" fill="#FF0000"/>
<path d="M22.7422 28.203L37.4696 19.7423L22.7422 11.2812V28.203Z" fill="white"/>
<path d="M170.781 11.4619C172.713 11.4619 174.171 11.8233 175.191 12.5102C176.212 13.1974 176.942 14.2819 177.379 15.7647C177.816 17.2471 177.998 19.2716 177.998 21.875V26.1057H168.63V27.4071L168.776 30.9868C168.885 31.7823 169.067 32.3609 169.359 32.7223C169.651 33.084 170.124 33.2647 170.744 33.2647C171.583 33.2647 172.166 32.9395 172.457 32.2888C172.786 31.6378 172.931 30.553 172.968 29.0705L177.816 29.3599C177.853 29.5768 177.853 29.8661 177.853 30.2274C177.853 32.5054 177.233 34.205 175.957 35.3257C174.681 36.4464 172.931 37.025 170.635 37.025C167.864 37.025 165.932 36.1574 164.839 34.4581C163.745 32.7585 163.162 30.0826 163.162 26.5033V22.1281C163.286 15.9816 164.375 11.4799 170.781 11.4619ZM103.377 11.9319V30.0468C103.377 31.1316 103.486 31.9271 103.741 32.3971C104.259 33.4023 105.601 33.1454 106.33 32.6502C106.751 32.368 107.09 31.9817 107.314 31.5295V11.9316H112.891V36.6271H108.517L108.043 33.5899H107.934C106.731 35.8678 104.944 37.0247 102.575 37.0247C98.9282 37.0157 98.0357 34.4095 97.8233 31.7626L97.8094 31.5761C97.7832 31.1752 97.7677 30.7736 97.7632 30.3719V11.9319H103.377H103.377ZM132.139 11.9319V30.0468C132.139 31.1316 132.249 31.9271 132.504 32.3971C133.022 33.4023 134.363 33.1454 135.092 32.6502C135.513 32.368 135.852 31.9817 136.076 31.5295V11.9316H141.654V36.6271H137.279L136.805 33.5899H136.696C135.493 35.8678 133.707 37.0247 131.337 37.0247C127.69 37.0157 126.798 34.4095 126.586 31.7626L126.572 31.5761C126.545 31.1752 126.53 30.7736 126.525 30.3719V11.9319H132.139ZM87.1913 11.4619C89.014 11.4619 90.5086 11.8233 91.6023 12.5826C92.6957 13.3419 93.5343 14.4992 94.0446 16.0899C94.555 17.6809 94.8102 19.814 94.8102 22.4537V26.033C94.8102 28.6726 94.555 30.7699 94.0446 32.3605C93.5343 33.9519 92.7322 35.1088 91.6023 35.8681C90.4725 36.5912 88.941 36.9888 87.0456 36.9888C85.0768 37.025 83.5458 36.6274 82.4159 35.9043C81.286 35.145 80.4836 33.9878 80.0101 32.3971C79.5359 30.8061 79.3172 28.7088 79.3172 26.0695V22.4895C79.3172 19.8499 79.5724 17.6805 80.1193 16.0895C80.6661 14.4626 81.5043 13.3054 82.6711 12.5826C83.8374 11.8592 85.332 11.4616 87.1913 11.4616V11.4619ZM150.403 1.55469V14.5712H150.439C150.95 13.6312 151.606 12.8719 152.517 12.2933C153.368 11.7256 154.371 11.4235 155.397 11.4257C156.746 11.4257 157.767 11.7871 158.532 12.474C159.298 13.1974 159.844 14.3181 160.172 15.873C160.49 17.3792 160.671 19.4623 160.682 22.0892L160.683 22.3454V26.2502C160.683 29.9019 160.209 32.614 159.334 34.3495C158.423 36.085 157.037 36.953 155.142 36.953C154.085 36.953 153.137 36.6999 152.262 36.2299C151.488 35.7827 150.847 35.1414 150.402 34.3706L150.33 34.2409H150.221L149.637 36.5912H145.008V1.55503H150.403V1.55469ZM128.093 2.8202V7.30331H122.552V36.6271H117.084V7.30365H111.506V2.82055H128.093L128.093 2.8202ZM67.9798 2.8202L67.9833 2.834C68.0365 3.06883 68.7735 6.31883 69.5842 10.1054L69.6482 10.4054L69.7448 10.8588L69.8095 11.1633L69.8418 11.3161L69.9065 11.6223L69.9388 11.7757L70.0032 12.083L70.097 12.5323C70.6446 15.1543 71.1671 17.784 71.4796 19.6695H71.6257C71.925 17.9781 72.3599 15.8137 72.8237 13.6037L72.9454 13.0264C73.0066 12.7374 73.0677 12.4485 73.1296 12.1602L73.2249 11.713C73.8547 8.78429 74.5033 5.85963 75.1707 2.93917L75.1811 2.89262L75.1978 2.8202H80.7753L74.3228 25.6357V36.5912H68.8183V25.6716H68.7818L62.4023 2.81986L67.9798 2.8202ZM87.0818 15.2943C86.3162 15.2943 85.8059 15.6923 85.478 16.524C85.1498 17.3554 85.0042 18.6209 85.0042 20.393V28.0943C85.0042 29.9023 85.1498 31.2399 85.4415 32.0357C85.7332 32.8309 86.2801 33.2288 87.0818 33.2288C87.8473 33.2288 88.3942 32.8309 88.7224 32.0357C89.0505 31.2399 89.1962 29.9023 89.1962 28.0943V20.3926C89.1962 18.6209 89.0502 17.3192 88.7224 16.5237C88.3942 15.6923 87.8473 15.2943 87.0818 15.2943ZM151.387 16.0178C150.943 16.4247 150.627 16.9264 150.439 17.5537L150.403 17.6809V31.7099C150.855 32.4692 151.497 32.9754 152.626 33.0116C153.21 33.0116 153.683 32.7947 154.048 32.3609C154.413 31.9271 154.668 31.2037 154.814 30.1912C154.954 29.2195 155.027 27.8809 155.032 26.1761V22.743C155.032 20.7906 154.959 19.3081 154.85 18.2595C154.704 17.2109 154.522 16.4516 154.194 16.0178C153.56 15.1137 152.189 15.1247 151.387 16.0178ZM170.672 15.1861C170.052 15.2223 169.614 15.403 169.359 15.7285C169.067 16.0899 168.885 16.6323 168.776 17.4278C168.668 18.2071 168.631 20.9312 168.63 21.0402V22.8154H172.713V21.2499V21.2799C172.71 21.8271 172.699 20.9623 172.674 19.9006L172.67 19.7578C172.647 18.8247 172.614 17.7843 172.567 17.4278C172.457 16.5961 172.275 16.0174 171.984 15.6923C171.692 15.3668 171.255 15.1861 170.671 15.1861H170.672Z" fill="#282828"/>
</g>
<defs>
<clipPath id="clip0_1_2679">
<rect width="178" height="40" fill="white"/>
</clipPath>
</defs>
</svg>
