<svg width="422" height="30" viewBox="0 0 422 30" fill="none" xmlns="http://www.w3.org/2000/svg">
<path d="M3.26002 24.7485C4.7699 26.6349 6.7372 27.3456 9.2071 27.4918C11.216 27.6108 13.2831 27.3562 15.5324 27.0791C16.3837 26.9743 17.2611 26.8662 18.1713 26.7739L18.1736 26.7737C21.3515 26.455 24.5708 26.1166 27.7979 25.7774C31.525 25.3855 35.2627 24.9926 38.9592 24.6277C38.9597 24.6277 38.9602 24.6276 38.9607 24.6276L39.1817 26.8667L3.26002 24.7485ZM3.26002 24.7485L3.07201 24.4939C2.8723 24.2235 2.76527 23.8156 3.0251 23.0704C3.29461 22.2975 3.87658 21.4751 4.50734 20.8805L4.5088 20.8791C5.47461 19.967 6.74568 19.4287 8.36232 19.0729C9.50569 18.8212 10.6241 18.6925 11.8413 18.5525C12.4442 18.4831 13.0713 18.4109 13.7378 18.3196L13.7379 18.3196C19.6458 17.5099 25.5781 16.8893 31.544 16.2652C33.2969 16.0818 35.0528 15.8981 36.8118 15.7093C52.4976 14.0259 68.2 12.5037 83.9189 11.1426L83.9199 11.1425C139.386 6.31453 195.282 3.33056 250.967 3.19573L3.26002 24.7485ZM324.672 11.403C270.344 11.0952 215.885 12.4721 161.653 15.3077L250.968 3.19573C278.834 3.13656 306.59 3.41226 334.436 4.23876L334.437 4.23878C346.539 4.59394 358.613 5.27363 370.728 5.95561C372.516 6.05628 374.305 6.157 376.096 6.25674C378.36 6.38286 380.62 6.50134 382.877 6.61963C394.544 7.23113 406.112 7.83743 417.561 9.46816L417.564 9.4687C418.301 9.57231 418.628 9.85042 418.777 10.0426C418.942 10.2558 419.033 10.5528 418.998 10.901C418.93 11.5636 418.413 12.3183 417.184 12.3577C406.579 12.6941 395.995 12.3897 385.338 12.0832C380.437 11.9422 375.52 11.8008 370.579 11.7211L370.578 11.721C359.804 11.5494 349.007 11.5074 338.231 11.4654C333.707 11.4478 329.186 11.4302 324.672 11.4031L324.672 11.403Z" fill="#DE1F54" stroke="#FFE8E8" stroke-width="4.5"/>
</svg>
