<svg width="834" height="223" viewBox="0 0 834 223" fill="none" xmlns="http://www.w3.org/2000/svg">
<path fill-rule="evenodd" clip-rule="evenodd" d="M1030.89 301.772L1199.68 0L1110.72 1.12145L963.464 264.097C961.219 268.147 957.932 271.522 953.942 273.872C949.953 276.222 945.407 277.461 940.777 277.461C936.147 277.461 931.601 276.222 927.612 273.872C923.622 271.522 920.334 268.147 918.09 264.097L803.645 58.6797C794.796 42.5146 781.736 29.046 765.851 19.7021C749.966 10.3582 731.849 5.48749 713.42 5.60636C695.017 5.48158 676.922 10.3253 661.042 19.6268C645.162 28.9284 632.087 42.343 623.195 58.4557L531.7 222.087L529.307 226.422L508.078 264.396C507.532 265.327 506.933 266.225 506.284 267.087C503.564 271.089 500.492 274.819 497.112 278.237C500.377 274.901 503.351 271.27 505.993 267.383C503.583 270.758 500.378 273.485 496.662 275.324C492.945 277.162 488.833 278.055 484.688 277.923C480.1 277.921 475.597 276.685 471.652 274.344C467.706 272.003 464.463 268.644 462.263 264.617L430.494 207.507L348.043 59.4995C339.174 43.3173 326.09 29.8381 310.178 20.4936C294.266 11.1491 276.121 6.28783 257.668 6.42569C239.227 6.29329 221.094 11.1577 205.195 20.5023C189.296 29.8469 176.224 43.3232 167.368 59.4995L0 360H88.5805L235.019 97.1741C237.269 93.1424 240.554 89.7844 244.536 87.4469C248.518 85.1093 253.051 83.8768 257.668 83.8768C262.285 83.8768 266.819 85.1093 270.8 87.4469C274.782 89.7844 278.068 93.1424 280.318 97.1741L334.288 193.678L375.701 267.981C376.341 268.905 377.001 269.814 377.678 270.708L395.129 301.996C403.985 318.156 417.046 331.62 432.929 340.963C448.812 350.306 466.927 355.18 485.354 355.069C503.767 355.203 521.874 350.355 537.758 341.038C553.641 331.721 566.709 318.282 575.579 302.145L690.696 96.2799C693.353 91.302 697.623 87.3748 702.806 85.142C706.147 83.7563 709.729 83.0448 713.346 83.0488C717.929 83.027 722.434 84.2454 726.381 86.5746C730.329 88.9038 733.574 92.2572 735.771 96.2799L850.215 301.772C859.174 317.871 872.273 331.285 888.156 340.623C904.038 349.961 922.128 354.885 940.552 354.885C958.977 354.885 977.067 349.961 992.95 340.623C1008.83 331.285 1021.93 317.871 1030.89 301.772Z" fill="url(#paint0_linear_1_91)"/>
<defs>
<linearGradient id="paint0_linear_1_91" x1="1.31885" y1="2.11254" x2="1639.41" y2="264.708" gradientUnits="userSpaceOnUse">
<stop stop-color="#DE1F54"/>
<stop offset="1" stop-color="#851534"/>
</linearGradient>
</defs>
</svg>
