<svg width="421" height="29" viewBox="0 0 421 29" fill="none" xmlns="http://www.w3.org/2000/svg">
<path d="M3.0895 23.8052C4.59691 25.6725 6.56398 26.3794 9.03675 26.5253C11.0453 26.6438 13.1124 26.3919 15.36 26.1179C16.2102 26.0143 17.0862 25.9075 17.9947 25.8164L17.997 25.8162C21.1721 25.5013 24.3883 25.1668 27.6123 24.8316C31.3356 24.4444 35.0693 24.0562 38.7622 23.6957L3.0895 23.8052ZM3.0895 23.8052L2.90179 23.5532C2.7083 23.2934 2.60122 22.9025 2.85744 22.1733C3.12421 21.414 3.70221 20.6027 4.33118 20.0147L4.33264 20.0133C5.2955 19.1115 6.56499 18.578 8.18213 18.2255C9.32496 17.9763 10.4434 17.849 11.6597 17.7105C12.2619 17.6419 12.8882 17.5706 13.5533 17.4804L13.5534 17.4804C19.4557 16.6798 25.3825 16.0665 31.3426 15.4497C33.0937 15.2685 34.8477 15.087 36.6048 14.9004C52.2754 13.2368 67.9625 11.7329 83.6663 10.3886L83.6673 10.3885C139.079 5.62009 194.922 2.67877 250.554 2.56026C278.394 2.50917 306.125 2.78985 333.945 3.61626L333.946 3.61628C346.036 3.97144 358.099 4.64814 370.203 5.3271C371.99 5.42732 373.777 5.52759 375.566 5.62689C377.827 5.75246 380.086 5.87045 382.34 5.98825C393.997 6.59726 405.555 7.20113 416.993 8.82001L416.997 8.82055C417.738 8.92409 418.066 9.20183 418.212 9.38985C418.374 9.59747 418.462 9.88363 418.428 10.2184C418.364 10.85 417.863 11.6023 416.623 11.6414C406.026 11.9718 395.452 11.6673 384.805 11.3607C379.909 11.2198 374.997 11.0783 370.06 10.998L370.06 10.998C359.296 10.825 348.51 10.7804 337.744 10.736C333.224 10.7173 328.708 10.6986 324.198 10.6705L324.197 10.6705C269.921 10.3508 215.515 11.7002 161.334 14.495C134.042 15.8885 106.792 17.8239 79.5778 20.0302L79.5772 20.0302C65.9632 21.1376 52.3587 22.3593 38.7636 23.6955L3.0895 23.8052Z" fill="#DE1F54" stroke="#FFE2E2" stroke-width="4.5"/>
</svg>
