<svg width="44" height="49" viewBox="0 0 44 49" fill="none" xmlns="http://www.w3.org/2000/svg">
<path d="M41.0728 32.4672C39.3134 36.345 37.5539 40.2229 35.7945 44.1007C35.8898 34.0469 35.5874 23.8143 33.9581 13.8706C33.1389 8.87167 31.9751 4.12188 27.0891 1.61068C15.3084 -4.44437 5.4758 7.91666 0.13158 16.4251C-0.432899 17.3242 0.965469 18.1023 1.55561 17.2447C3.98396 13.719 6.41965 10.0018 9.6654 7.14398C18.3452 -0.497937 28.7147 1.95188 31.242 14.2822C32.8365 22.0631 32.9465 30.4218 32.809 38.5042C31.4198 36.3649 29.8272 34.3863 27.8735 32.451C26.5998 31.1872 24.5196 32.7958 25.3938 34.3357C28.1576 39.2047 31.2109 43.792 34.6399 48.2331C35.2759 49.0563 36.8502 49.4372 37.3963 48.2331C39.5443 43.5103 41.6941 38.7858 43.842 34.0631C44.6814 32.2217 41.914 30.6113 41.0728 32.4672Z" fill="black"/>
</svg>
